<?xml version="1.0" encoding="UTF-8"?>
<!-- Generator: Adobe Illustrator 22.0.1, SVG Export Plug-In . SVG Version: 6.00 Build 0)  -->
<svg version="1.1" xmlns="http://www.w3.org/2000/svg" xmlns:xlink="http://www.w3.org/1999/xlink" x="0px" y="0px" viewBox="0 0 567 138" style="enable-background:new 0 0 567 138;" xml:space="preserve">
<style type="text/css">
	.st0{fill:#3C6AB4;}
	.st1{fill:#CA7428;}
</style>
<g id="Layer_2">
</g>
<g id="Layer_3">
	<g>
		<g>
			<path class="st0" d="M180.1,62.3c-1.6,0.8-3,1.2-3.9,1.2c-5.9,0-9.1-3.6-9.1-11v-27h-6.4l-0.4-1l2.6-2.7h4.2v-6.7l6-6.2l1.3,0.2     v12.7h10.5c0.9,1,0.7,3-0.6,3.7h-10v23.8c0,7.4,3.1,8.8,5.5,8.8c2.3,0,4.5-0.8,5.7-1.5l0.8,2.3L180.1,62.3z"/>
			<path class="st0" d="M219.7,62.4v-1.8c4-0.5,4.6-1,3.7-3.5s-2.1-5.9-3.5-9.7h-13.5c-1,2.8-2,5.5-2.8,8.1c-1.3,4-0.8,4.6,4,5.1     v1.8h-13.8v-1.8c4-0.6,4.9-0.9,7.1-6.6L214,21l2-0.6c3.9,10.8,8.2,22.9,12.2,33.8c2,5.4,2.8,6,7,6.4v1.8H219.7z M213.5,28.6h-0.1     c-2,5.4-4,10.9-5.9,16.1H219L213.5,28.6z"/>
			<path class="st0" d="M270.7,52.5c-0.4,2-1.7,8-2.3,9.9h-28.6v-1.8c5.3-0.4,5.8-0.8,5.8-6.2V29.2c0-5.4-0.4-5.7-5.6-6.1v-1.8h16.5     v1.8c-5,0.4-5.6,0.7-5.6,6.1v25c0,3.4,0.3,4.7,1.5,5.3c1.3,0.7,3.4,0.8,6.1,0.8c3.5,0,5.6-0.3,7.1-2c1.1-1.3,2.3-3.3,3.2-6.2     L270.7,52.5z"/>
			<path class="st0" d="M305.3,62.4c-4.9-5.5-10-11.7-15.7-18.4c-1.5-1.7-2.3-1.9-3.4-1.7v11.9c0,5.6,0.6,6,5.8,6.4v1.8h-16.4v-1.8     c4.8-0.4,5.3-0.8,5.3-6.4V29.5c0-5.8-0.5-6.1-5.5-6.4v-1.8h16.3v1.8c-4.9,0.4-5.5,0.8-5.5,6.4v11.1c1.4-0.3,2.7-1.2,4.4-2.8     c3.5-3.3,7.7-7.8,10.6-11.2c1.9-2.3,1.8-2.9-1-3.2l-1.5-0.2v-1.8h15.2v1.8c-4.7,0.4-6.3,1.1-10.2,4.7c-2.5,2.2-7,6.8-11.2,11.1     c4.7,6,11.7,13.8,14.9,17.2c3.3,3.6,4.6,4.2,7.6,4.6v1.8H305.3z"/>
			<path class="st0" d="M317.7,62.4v-1.8c5.2-0.4,5.7-0.8,5.7-6.1V29.2c0-5.4-0.5-5.8-5.7-6.1v-1.8h16.7v1.8     c-5.2,0.4-5.7,0.8-5.7,6.1v25.3c0,5.4,0.5,5.8,5.7,6.1v1.8H317.7z"/>
			<path class="st0" d="M382.3,23.1c-3.5,0.2-5.1,1-5.3,3.7c-0.3,2-0.4,4.8-0.4,10.7V63h-2l-26.9-33.1h-0.1v15.9     c0,5.8,0.2,8.8,0.4,10.7c0.3,3.2,1.8,4,6.1,4.2v1.8h-15v-1.8c3.6-0.3,5.2-1,5.6-4.1c0.2-2,0.4-5.1,0.4-10.8V31.8     c0-4.6-0.1-4.9-1.3-6.4c-1.3-1.6-2.7-2.1-5.6-2.3v-1.8h9.3L373.9,53h0.2V37.5c0-5.8-0.2-8.7-0.4-10.5c-0.3-2.8-1.8-3.7-6.2-3.9     v-1.8h14.9V23.1z"/>
			<path class="st0" d="M426.3,45.1c-3.8,0.5-4,0.9-4,4.6v5.4c0,2.2,0.1,4.2,0.4,6c-3.9,0.9-9.1,2.3-14.2,2.3     c-13.9,0-23.2-8.7-23.2-21.2c0-14.6,11.8-21.7,24.1-21.7c5.3,0,10.1,1.3,12.2,1.8c0.2,2.2,0.5,5.7,0.9,9.9l-1.8,0.4     c-1.5-7.8-6.3-9.9-12.3-9.9c-9.7,0-16.7,7.1-16.7,18.8c0,9.2,5.4,19.8,17.6,19.8c2.1,0,4.1-0.4,5.5-1.1c1.3-0.7,2-1.5,2-4.2v-5.4     c0-4.6-0.4-4.9-6.6-5.4v-1.8h16.1V45.1z"/>
			<path class="st0" d="M449.1,62.3c-1.6,0.8-3,1.2-3.9,1.2c-5.9,0-9.1-3.6-9.1-11v-27h-6.4l-0.4-1l2.6-2.7h4.2v-6.7l6-6.2l1.3,0.2     v12.7H454c0.9,1,0.7,3-0.6,3.7h-10v23.8c0,7.4,3.1,8.8,5.5,8.8c2.3,0,4.5-0.8,5.7-1.5l0.8,2.3L449.1,62.3z"/>
			<path class="st0" d="M495.7,62.9c-0.8,0-1.5,0-2.2-0.1c-4.8-0.3-7.4-1.6-10.2-5.8c-2.2-3.1-4.5-7-6.4-10.1     c-1.1-1.8-2.1-2.5-5.4-2.5h-2v10c0,5.3,0.6,5.8,5.6,6.1v1.8h-16.6v-1.8c5.2-0.4,5.7-0.8,5.7-6.1V29.2c0-5.4-0.5-5.6-5.4-6.1v-1.8     h15.7c4.6,0,7.7,0.6,10,2.1c2.6,1.6,4.2,4.5,4.2,8.3c0,5.4-3.4,8.8-8,10.9c1.1,2,3.7,6.3,5.6,9.1c2.3,3.3,3.5,4.9,5.1,6.6     c1.6,1.9,3.2,2.6,4.6,3L495.7,62.9z M472.6,42.4c3.2,0,5.2-0.5,6.8-1.8c2.5-1.9,3.5-4.4,3.5-7.8c0-6.8-4.5-9.4-9.2-9.4     c-1.8,0-2.9,0.3-3.4,0.6c-0.5,0.3-0.7,1.1-0.7,2.8v15.6H472.6z"/>
			<path class="st0" d="M531.1,52.4c-0.4,2.1-1.6,8-2.2,10h-30.5v-1.8c5.8-0.4,6.3-0.9,6.3-6.1V29.4c0-5.6-0.5-5.9-5.4-6.3v-1.7     h28.2c0,1.5,0.3,5.8,0.5,9.1l-1.8,0.3c-0.6-2.7-1.2-4-2-5.4c-0.9-1.4-2.6-1.8-7.1-1.8h-4.8c-2,0-2.1,0.2-2.1,2v14.4h5.9     c5.8,0,6.1-0.5,6.8-4.7h1.8v12.1h-1.8c-0.8-4.5-1.3-4.9-6.8-4.9h-6v11.9c0,3,0.4,4.4,1.5,5.1c1.2,0.8,3.4,0.8,6.6,0.8     c4.8,0,6.6-0.5,8-2.1c1.1-1.3,2.3-3.4,3.2-5.9L531.1,52.4z"/>
			<path class="st0" d="M567,52.4c-0.4,2.1-1.6,8-2.2,10h-30.5v-1.8c5.8-0.4,6.3-0.9,6.3-6.1V29.4c0-5.6-0.5-5.9-5.4-6.3v-1.7h28.2     c0,1.5,0.3,5.8,0.5,9.1l-1.8,0.3c-0.6-2.7-1.2-4-2-5.4c-0.9-1.4-2.6-1.8-7.1-1.8h-4.8c-2,0-2.1,0.2-2.1,2v14.4h5.9     c5.8,0,6.1-0.5,6.8-4.7h1.8v12.1h-1.8c-0.8-4.5-1.3-4.9-6.8-4.9h-6v11.9c0,3,0.4,4.4,1.5,5.1c1.2,0.8,3.4,0.8,6.6,0.8     c4.8,0,6.6-0.5,8-2.1c1.1-1.3,2.3-3.4,3.2-5.9L567,52.4z"/>
		</g>
		<g>
			<path class="st1" d="M188.1,111.4c-0.5,1.8-1.5,4.6-2.2,5.9c-1.1,0.2-4.3,1-7,1c-9.5,0-13.6-6.5-13.6-12.6     c0-8,6.2-13.3,14.7-13.3c3.1,0,5.7,0.8,6.7,1c0.3,2.1,0.5,3.7,0.8,5.7l-1.1,0.3c-1-4-3.3-5.7-7.4-5.7c-6.4,0-9.7,5.4-9.7,11.2     c0,7.1,4.2,12,10,12c3.9,0,5.9-2.1,7.8-5.9L188.1,111.4z"/>
			<path class="st1" d="M242.5,118c-0.5,0-0.9,0-1.3,0c-2.9-0.2-4.5-1-6.2-3.5c-1.3-1.9-2.7-4.2-3.8-6.1c-0.6-1.1-1.3-1.5-3.2-1.5     h-1.2v6.1c0,3.2,0.3,3.5,3.4,3.7v1.1h-10v-1.1c3.1-0.2,3.4-0.5,3.4-3.7V97.7c0-3.3-0.3-3.4-3.3-3.7V93h9.4c2.8,0,4.6,0.3,6.1,1.3     c1.6,1,2.6,2.7,2.6,5c0,3.3-2.1,5.3-4.8,6.5c0.6,1.2,2.2,3.8,3.4,5.5c1.4,2,2.1,3,3.1,4c1,1.1,1.9,1.6,2.7,1.8L242.5,118z      M228.6,105.7c1.9,0,3.2-0.3,4.1-1.1c1.5-1.1,2.1-2.6,2.1-4.7c0-4.1-2.7-5.6-5.6-5.6c-1.1,0-1.8,0.2-2.1,0.4     c-0.3,0.2-0.4,0.6-0.4,1.7v9.4H228.6z"/>
			<path class="st1" d="M293.6,111.7c-0.2,1.3-1,4.8-1.3,6h-18.4v-1.1c3.5-0.3,3.8-0.6,3.8-3.7V97.8c0-3.4-0.3-3.5-3.3-3.8v-1h17     c0,0.9,0.2,3.5,0.3,5.5l-1.1,0.2c-0.3-1.6-0.7-2.4-1.2-3.2c-0.5-0.8-1.6-1.1-4.3-1.1h-2.9c-1.2,0-1.3,0.1-1.3,1.2v8.7h3.6     c3.5,0,3.7-0.3,4.1-2.9h1.1v7.3h-1.1c-0.5-2.7-0.8-2.9-4.1-2.9h-3.6v7.2c0,1.8,0.2,2.6,0.9,3.1c0.7,0.5,2.1,0.5,4,0.5     c2.9,0,4-0.3,4.8-1.3c0.6-0.8,1.4-2.1,1.9-3.6L293.6,111.7z"/>
			<path class="st1" d="M343.4,117.7v-1.1c2.4-0.3,2.7-0.6,2.2-2.1c-0.5-1.5-1.3-3.5-2.1-5.9h-8.1c-0.6,1.7-1.2,3.3-1.7,4.9     c-0.8,2.4-0.5,2.8,2.4,3.1v1.1h-8.3v-1.1c2.4-0.3,3-0.6,4.3-4l7.9-19.9l1.2-0.3c2.4,6.5,4.9,13.8,7.3,20.4     c1.2,3.3,1.7,3.6,4.2,3.9v1.1H343.4z M339.7,97.4L339.7,97.4c-1.3,3.2-2.5,6.6-3.7,9.7h7L339.7,97.4z"/>
			<path class="st1" d="M398.3,117.7c-1,0.5-1.8,0.7-2.4,0.7c-3.5,0-5.5-2.2-5.5-6.6V95.5h-3.9l-0.2-0.6l1.6-1.6h2.5v-4l3.6-3.8     l0.8,0.1v7.7h6.3c0.6,0.6,0.4,1.8-0.3,2.2h-6v14.3c0,4.5,1.8,5.3,3.3,5.3c1.4,0,2.7-0.5,3.4-0.9l0.5,1.4L398.3,117.7z"/>
			<path class="st1" d="M443.2,117.7v-1.1c3.1-0.2,3.4-0.5,3.4-3.7V97.7c0-3.2-0.3-3.5-3.4-3.7V93h10.1V94c-3.1,0.2-3.4,0.5-3.4,3.7     V113c0,3.3,0.3,3.5,3.4,3.7v1.1H443.2z"/>
			<path class="st1" d="M509.8,94c-2.6,0.3-3.1,0.6-4.5,4c-1,2.5-5,12.2-7.9,20.1h-1.2c-2.6-7-5.7-15.2-7.9-20.7     c-1.1-2.8-1.7-3.1-4-3.3V93h9.3V94c-2.7,0.3-2.8,0.6-2.2,2.2c1,2.7,3.7,10.1,6.3,16.6h0.1c1.9-4.8,4.8-12.2,6-16     c0.7-2.2,0.5-2.5-2.6-2.9V93h8.6V94z"/>
			<path class="st1" d="M560.9,111.7c-0.2,1.3-1,4.8-1.3,6h-18.3v-1.1c3.5-0.3,3.8-0.6,3.8-3.7V97.8c0-3.4-0.3-3.5-3.3-3.8v-1h17     c0,0.9,0.2,3.5,0.3,5.5l-1.1,0.2c-0.3-1.6-0.7-2.4-1.2-3.2c-0.5-0.8-1.6-1.1-4.3-1.1h-2.9c-1.2,0-1.3,0.1-1.3,1.2v8.7h3.6     c3.5,0,3.7-0.3,4.1-2.9h1.1v7.3h-1.1c-0.5-2.7-0.8-2.9-4.1-2.9h-3.6v7.2c0,1.8,0.2,2.6,0.9,3.1c0.7,0.5,2.1,0.5,4,0.5     c2.9,0,4-0.3,4.8-1.3c0.6-0.8,1.4-2.1,1.9-3.6L560.9,111.7z"/>
		</g>
		<g>
			<path class="st0" d="M27.3,68c0,0,37.7,11.3,6.7,67.3C34,135.3,89.7,73.3,27.3,68z"/>
		</g>
		<g>
			<path class="st0" d="M97.3,70.3c0,0-55,13,7.3,67.7C104.7,138,67.7,96,97.3,70.3z"/>
		</g>
		<g>
			<circle class="st1" cx="30.7" cy="28.7" r="12"/>
		</g>
		<g>
			<circle class="st1" cx="103.7" cy="27.3" r="12"/>
		</g>
		<g>
			<circle class="st0" cx="12" cy="60.7" r="12"/>
		</g>
		<g>
			<circle class="st0" cx="67.3" cy="51" r="12"/>
		</g>
		<g>
			<circle class="st0" cx="115.7" cy="63.3" r="12"/>
		</g>
		<g>
			<circle class="st0" cx="67.3" cy="12" r="12"/>
		</g>
	</g>
</g>
</svg>